<?xml version="1.0" encoding="utf-8"?>
<!-- Generator: Adobe Illustrator 24.0.3, SVG Export Plug-In . SVG Version: 6.00 Build 0)  -->
<svg version="1.1" id="Layer_1" xmlns="http://www.w3.org/2000/svg" xmlns:xlink="http://www.w3.org/1999/xlink" x="0px" y="0px"
	 width="1920px" height="1080px" viewBox="0 0 1920 1080" style="enable-background:new 0 0 1920 1080;" xml:space="preserve">
<style type="text/css">
	.st0{fill:#E5981C;}
	.st1{fill:#FFFFFF;}
	.st2{stroke:#FFFFFF;stroke-width:10;stroke-miterlimit:10;}
	.st3{fill:none;stroke:#FFFFFF;stroke-width:10;stroke-miterlimit:10;}
</style>
<g>
	<rect x="5" y="5" class="st0" width="1910" height="1070"/>
	<path class="st1" d="M1910,10v1060H10V10H1910 M1920,0H0v1080h1920V0L1920,0z"/>
</g>
<path class="st2" d="M482.9,165.6l12.3,95.4l43.1,12.3l16.9,35.4l-36.9,33.8v64.6c0,0-310.7,70.8-338.4,104.6s18.5,98.4,18.5,98.4
	s-70.8,49.2-3.1,89.2c0,0-6.2,55.4,83.1,64.6s996.7,76.9,996.7,76.9l163,92.3h49.2l45.8,6.6c0,0-36.7,49.7,104.9-27.2
	c0,0,64.7,20.5,67.8-50.2l40-80v-52.3l18.5-46.1l-30.8-58.4l-144.6-461.4c0,0-21.5-43.1-135.4-43.1c-113.8,0-120,18.5-120,18.5
	S921.3,99.5,482.9,165.6z"/>
<polyline class="st3" points="482.9,165.6 1584.2,802.4 1637.9,912.6 "/>
<path class="st3" d="M516.7,341c15.4,144.6,52.3,95.4,52.3,95.4s33.8-49.2,58.4,0c0,0,12.3,30.8,52.3,12.3c0,0,61.5,61.5,153.8,33.8
	c0,0-3.1,98.4,46.1,104.6c49.2,6.2,138.4,0,138.4,0s46.1-6.2,27.7,43.1s101.5,46.1,101.5,46.1s33.8-9.2,12.3,33.8
	s76.9,33.8,76.9,33.8s49.2-18.5,27.7,24.6s101.5,83.1,101.5,83.1s95.4-12.3,95.4,18.5c0,30.8,55.4,30.8,55.4,30.8h92.3l-1.9-3.8
	c0,0,66.5,37.6,1.9,0.7c-64.6-36.9-1070.5-624.5-1070.5-624.5"/>
<line class="st3" x1="569" y1="436.3" x2="1276.6" y2="839.3"/>
<line class="st3" x1="201" y1="608.6" x2="984.9" y2="673.2"/>
<path class="st3" d="M1135.1,758.7l-104.6-5.5c-6.2,49.2-187.7,3.1-187.7,3.1s-98.4-73.8-101.5-21.5c-3.1,52.3-92.3,46.1-92.3,46.1
	s-73.8-46.1-55.4-73.8c18.5-27.7-120-64.6-110.7-18.5c9.2,46.1-64.6,61.5-64.6,61.5s-89.2-6.2-64.6-61.5S201,697.8,201,697.8"/>
<line class="st3" x1="166" y1="510.1" x2="833.6" y2="587"/>
</svg>
