<?xml version="1.0" encoding="utf-8"?>
<!-- Generator: Adobe Illustrator 24.0.3, SVG Export Plug-In . SVG Version: 6.00 Build 0)  -->
<svg version="1.1" id="Layer_1" xmlns="http://www.w3.org/2000/svg" xmlns:xlink="http://www.w3.org/1999/xlink" x="0px" y="0px"
	 width="1920px" height="1080px" viewBox="0 0 1920 1080" style="enable-background:new 0 0 1920 1080;" xml:space="preserve">
<style type="text/css">
	.st0{fill:#FFFFFF;}
	.st1{stroke:#FFFFFF;stroke-width:2;stroke-miterlimit:10;}
	.st2{fill:none;stroke:#FFFFFF;stroke-width:2;stroke-miterlimit:10;}
</style>
<g>
	<rect x="5" y="5" width="1910" height="1070"/>
	<path class="st0" d="M1910,10v1060H10V10H1910 M1920,0H0v1080h1920V0L1920,0z"/>
</g>
<path class="st1" d="M425.6,121.3L439.4,228l48.2,13.8l18.9,39.6l-41.3,37.9v72.3c0,0-347.6,79.2-378.6,117s20.7,110.1,20.7,110.1
	s-79.2,55.1-3.4,99.8c0,0-6.9,62,92.9,72.3s1115.1,86,1115.1,86L1494.3,980h55.1l51.2,7.4c0,0-41,55.6,117.3-30.4
	c0,0,72.4,23,75.8-56.2l44.7-89.5v-58.5l20.7-51.6l-34.4-65.4l-161.8-516.3c0,0-24.1-48.2-151.4-48.2s-134.2,20.7-134.2,20.7
	S916,47.3,425.6,121.3z"/>
<polyline class="st2" points="425.6,121.3 1657.8,833.8 1717.9,957.1 "/>
<path class="st2" d="M463.5,317.5C480.7,479.3,522,424.2,522,424.2s37.9-55.1,65.4,0c0,0,13.8,34.4,58.5,13.8
	c0,0,68.8,68.8,172.1,37.9c0,0-3.4,110.1,51.6,117s154.9,0,154.9,0s51.6-6.9,31,48.2c-20.7,55.1,113.6,51.6,113.6,51.6
	s37.9-10.3,13.8,37.9c-24.1,48.2,86,37.9,86,37.9s55.1-20.7,31,27.5c-24.1,48.2,113.6,92.9,113.6,92.9s106.7-13.8,106.7,20.7
	c0,34.4,62,34.4,62,34.4h103.3l-2.2-4.2c0,0,74.4,42.1,2.2,0.8C1613,899.2,487.5,241.8,487.5,241.8"/>
<line class="st2" x1="522" y1="424.2" x2="1313.6" y2="875.1"/>
<line class="st2" x1="110.2" y1="616.9" x2="987.2" y2="689.2"/>
<path class="st2" d="M1155.3,784.9l-117-6.2c-6.9,55.1-209.9,3.4-209.9,3.4s-110.1-82.6-113.6-24.1c-3.4,58.5-103.3,51.6-103.3,51.6
	s-82.6-51.6-62-82.6c20.7-31-134.2-72.3-123.9-20.7c10.3,51.6-72.3,68.8-72.3,68.8s-99.8-6.9-72.3-68.8s-170.8,10.3-170.8,10.3"/>
<line class="st2" x1="71.1" y1="506.8" x2="818" y2="592.8"/>
</svg>
